<?xml version="1.0" encoding="UTF-8" standalone="no"?>
<svg
   width="22"
   height="20"
   version="1.1"
   id="svg1"
   sodipodi:docname="icon-cart.svg"
   inkscape:version="1.4 (86a8ad7, 2024-10-11)"
   xmlns:inkscape="http://www.inkscape.org/namespaces/inkscape"
   xmlns:sodipodi="http://sodipodi.sourceforge.net/DTD/sodipodi-0.dtd"
   xmlns="http://www.w3.org/2000/svg"
   xmlns:svg="http://www.w3.org/2000/svg">
  <defs
     id="defs1" />
  <sodipodi:namedview
     id="namedview1"
     pagecolor="#505050"
     bordercolor="#eeeeee"
     borderopacity="1"
     inkscape:showpageshadow="0"
     inkscape:pageopacity="0"
     inkscape:pagecheckerboard="0"
     inkscape:deskcolor="#505050"
     showgrid="false"
     inkscape:zoom="38.85"
     inkscape:cx="11.003861"
     inkscape:cy="10"
     inkscape:window-width="1920"
     inkscape:window-height="991"
     inkscape:window-x="-9"
     inkscape:window-y="-9"
     inkscape:window-maximized="1"
     inkscape:current-layer="svg1" />
  <path
     d="M 20.925,3.641 H 3.863 L 3.61,0.816 C 3.5685655,0.35378605 3.1810673,-2.9965399e-4 2.717,0 h -1.82 c -1.19466615,0 -1.19466615,1.792 0,1.792 h 1 l 1.031,11.483 c 0.073,0.828 0.52,1.726 1.291,2.336 C 2.83,17.385 4.099,20 6.359,20 8.234,20 9.556,18.13 8.913,16.358 h 4.905 c -0.642,1.77 0.677,3.642 2.555,3.642 1.499872,-0.0017 2.715347,-1.217128 2.717,-2.717 -0.0017,-1.499872 -1.217128,-2.715347 -2.717,-2.717 H 6.365 c -0.681,0 -1.274,-0.41 -1.53,-1.009 l 14.321,-0.842 c 0.391038,-0.02282 0.721925,-0.29701 0.817,-0.677 L 21.794,4.755 C 21.935081,4.1891428 21.507179,3.6412316 20.924,3.641 Z M 6.358,18.208 c -1.177302,-0.05476 -1.177302,-1.795242 0,-1.85 1.177302,0.05476 1.177302,1.795242 0,1.85 z m 10.015,0 c -1.177302,-0.05476 -1.177302,-1.795242 0,-1.85 1.177302,0.05476 1.177302,1.795242 0,1.85 z m 2.021,-7.243 -13.8,0.81 -0.57,-6.341 h 15.753 l -1.383,5.53 z"
     fill="#69707d"
     fill-rule="nonzero"
     id="path1"
     sodipodi:nodetypes="ccccsscccscccccscccccccccccccccccc"
     style="fill:#1d2025;fill-opacity:1" />
</svg>
